<svg width="45" height="31" viewBox="0 0 45 31" fill="none" xmlns="http://www.w3.org/2000/svg">
<g id="Layer_x0020_1" filter="url(#filter0_d_17_32)">
<path id="Vector" d="M17.6309 25.4288C18.5175 25.6953 19.2921 26.0463 19.9278 26.5H1.5V3.06611H2.93976V24.3895V24.8873L3.43751 24.8895C4.43567 24.894 5.58876 24.8491 6.80959 24.8016C7.18488 24.787 7.56658 24.7721 7.95214 24.7584C9.6013 24.6996 11.336 24.6602 13.0073 24.7403C14.6807 24.8204 16.2697 25.0196 17.6309 25.4288ZM5.3357 22.7604V0.653456C6.10347 0.636033 6.87056 0.611334 7.63185 0.586821C10.0126 0.510162 12.3367 0.435332 14.4472 0.590619C17.2948 0.800141 19.5951 1.42299 21.0299 2.90062V24.2952C20.4661 23.9395 19.7832 23.6736 19.0348 23.4704C17.8212 23.1408 16.3649 22.9577 14.8004 22.8564C12.5844 22.7129 10.092 22.7313 7.69691 22.749C6.89423 22.7549 6.10247 22.7607 5.3357 22.7604ZM42.3121 24.3895V3.06611H43.5V26.5H25.3432C25.9593 26.0761 26.7144 25.7428 27.5831 25.4857C28.9473 25.0819 30.5493 24.8786 32.2359 24.7901C33.9201 24.7018 35.6687 24.7287 37.3222 24.7771C37.7659 24.7901 38.204 24.8047 38.6323 24.8189C39.7909 24.8575 40.8783 24.8937 41.8144 24.8895L42.3121 24.8873V24.3895ZM24.222 24.2952V2.90062C25.6567 1.42299 27.9571 0.800141 30.8047 0.590619C32.9152 0.435332 35.2392 0.510162 37.62 0.586821C38.3813 0.611334 39.1484 0.636033 39.9162 0.653456V22.7604C39.1494 22.7607 38.3577 22.7549 37.555 22.749C35.16 22.7313 32.6676 22.7129 30.4516 22.8564C28.8871 22.9577 27.4307 23.1408 26.2171 23.4704C25.4688 23.6736 24.7858 23.9395 24.222 24.2952Z" fill="#D7D4D4" stroke="black"/>
</g>
<defs>
<filter id="filter0_d_17_32" x="0" y="0" width="45" height="31" filterUnits="userSpaceOnUse" color-interpolation-filters="sRGB">
<feFlood flood-opacity="0" result="BackgroundImageFix"/>
<feColorMatrix in="SourceAlpha" type="matrix" values="0 0 0 0 0 0 0 0 0 0 0 0 0 0 0 0 0 0 127 0" result="hardAlpha"/>
<feOffset dy="3"/>
<feGaussianBlur stdDeviation="0.5"/>
<feComposite in2="hardAlpha" operator="out"/>
<feColorMatrix type="matrix" values="0 0 0 0 0 0 0 0 0 0 0 0 0 0 0 0 0 0 0.25 0"/>
<feBlend mode="normal" in2="BackgroundImageFix" result="effect1_dropShadow_17_32"/>
<feBlend mode="normal" in="SourceGraphic" in2="effect1_dropShadow_17_32" result="shape"/>
</filter>
</defs>
</svg>
